<?xml version="1.0" encoding="utf-8"?><svg version="1.1" id="Layer_1" xmlns="http://www.w3.org/2000/svg" xmlns:xlink="http://www.w3.org/1999/xlink" x="0px" y="0px" viewBox="0 0 122.88 110.35" style="enable-background:new 0 0 122.88 110.35" xml:space="preserve"><g><path d="M6.32,0v6.22h12.22V0h6.32v14.88h73.15V0h6.32v6.22h12.22V0h6.32v110.35h-6.32v-7.19h-12.22v7.19h-6.32V94.79H24.87v15.56 h-6.32v-7.19H6.32v7.19H0V0H6.32L6.32,0z M60.84,44.13h6.82v8.34l7.15-8.34h9.07l-8.06,8.3l8.43,13.79h-8.39l-4.66-9.07l-3.54,3.69 v5.38h-6.82V44.13L60.84,44.13z M49.8,62.08H38.63v-5.04L49.8,43.76h5.34v13.57h2.78v4.75h-2.78v4.13H49.8V62.08L49.8,62.08z M49.8,57.33v-6.97l-5.9,6.97H49.8L49.8,57.33z M98.01,21.2H24.87v67.27h73.15V21.2L98.01,21.2z M116.56,96.84v-11.8h-12.22v11.8 H116.56L116.56,96.84z M116.56,78.72v-11.8h-12.22v11.8H116.56L116.56,78.72z M116.56,60.59v-11.8h-12.22v11.8H116.56L116.56,60.59 z M116.56,42.47v-11.8h-12.22v11.8H116.56L116.56,42.47z M116.56,24.35v-11.8h-12.22v11.8H116.56L116.56,24.35z M18.54,96.84v-11.8 H6.32v11.8H18.54L18.54,96.84z M18.54,78.72v-11.8H6.32v11.8H18.54L18.54,78.72z M18.54,60.59v-11.8H6.32v11.8H18.54L18.54,60.59z M18.54,42.47v-11.8H6.32v11.8H18.54L18.54,42.47z M18.54,24.35v-11.8H6.32v11.8H18.54L18.54,24.35z"/></g></svg>